<svg width="190" height="48" viewBox="0 0 190 48" fill="none" xmlns="http://www.w3.org/2000/svg">
<rect y="7.19998" width="40" height="40" fill="#FCA311"/>
<path d="M60 20.8C60 23.4264 59.4827 26.0271 58.4776 28.4537C57.4725 30.8802 55.9993 33.085 54.1421 34.9421C52.285 36.7993 50.0802 38.2725 47.6537 39.2776C45.2272 40.2827 42.6264 40.8 40 40.8C37.3736 40.8 34.7728 40.2827 32.3463 39.2776C29.9198 38.2725 27.715 36.7993 25.8579 34.9421C24.0007 33.0849 22.5275 30.8802 21.5224 28.4537C20.5173 26.0271 20 23.4264 20 20.8L40 20.8H60Z" fill="#14213D"/>
<path d="M93.408 12.664V16.28H87.456V35H82.976V16.28H77.024V12.664H93.408ZM98.9488 15.16C98.1594 15.16 97.4981 14.9147 96.9648 14.424C96.4528 13.912 96.1968 13.2827 96.1968 12.536C96.1968 11.7893 96.4528 11.1707 96.9648 10.68C97.4981 10.168 98.1594 9.912 98.9488 9.912C99.7381 9.912 100.389 10.168 100.901 10.68C101.434 11.1707 101.701 11.7893 101.701 12.536C101.701 13.2827 101.434 13.912 100.901 14.424C100.389 14.9147 99.7381 15.16 98.9488 15.16ZM101.157 17.272V35H96.6768V17.272H101.157ZM127.599 17.016C129.775 17.016 131.524 17.688 132.847 19.032C134.191 20.3547 134.863 22.2107 134.863 24.6V35H130.383V25.208C130.383 23.8213 130.031 22.7653 129.327 22.04C128.623 21.2933 127.663 20.92 126.447 20.92C125.231 20.92 124.26 21.2933 123.535 22.04C122.831 22.7653 122.479 23.8213 122.479 25.208V35H117.999V25.208C117.999 23.8213 117.647 22.7653 116.943 22.04C116.239 21.2933 115.279 20.92 114.063 20.92C112.826 20.92 111.844 21.2933 111.119 22.04C110.415 22.7653 110.063 23.8213 110.063 25.208V35H105.583V17.272H110.063V19.416C110.639 18.6693 111.375 18.0827 112.271 17.656C113.188 17.2293 114.191 17.016 115.279 17.016C116.666 17.016 117.903 17.3147 118.991 17.912C120.079 18.488 120.922 19.32 121.519 20.408C122.095 19.384 122.927 18.5627 124.015 17.944C125.124 17.3253 126.319 17.016 127.599 17.016ZM161.13 17.016C163.306 17.016 165.056 17.688 166.378 19.032C167.722 20.3547 168.394 22.2107 168.394 24.6V35H163.914V25.208C163.914 23.8213 163.562 22.7653 162.858 22.04C162.154 21.2933 161.194 20.92 159.978 20.92C158.762 20.92 157.792 21.2933 157.066 22.04C156.362 22.7653 156.01 23.8213 156.01 25.208V35H151.53V25.208C151.53 23.8213 151.178 22.7653 150.474 22.04C149.77 21.2933 148.81 20.92 147.594 20.92C146.357 20.92 145.376 21.2933 144.65 22.04C143.946 22.7653 143.594 23.8213 143.594 25.208V35H139.114V17.272H143.594V19.416C144.17 18.6693 144.906 18.0827 145.802 17.656C146.72 17.2293 147.722 17.016 148.81 17.016C150.197 17.016 151.434 17.3147 152.522 17.912C153.61 18.488 154.453 19.32 155.05 20.408C155.626 19.384 156.458 18.5627 157.546 17.944C158.656 17.3253 159.85 17.016 161.13 17.016ZM189.606 17.272L178.63 43.384H173.862L177.702 34.552L170.598 17.272H175.622L180.198 29.656L184.838 17.272H189.606Z" fill="#303948"/>
</svg>
